
<svg width="577px" height="330px" viewBox="0 0 577 330" version="1.1" xmlns="http://www.w3.org/2000/svg" xmlns:xlink="http://www.w3.org/1999/xlink">
    <g id="Page-1" stroke="none" stroke-width="1" fill="none" fill-rule="evenodd">
        <g id="Group-13" transform="translate(1.490816, 1.255472)">
            <g id="Group-12">
                <path d="M3.17872554,4.91777847 C7.38110205,6.21543003 10.3817784,6.21543003 12.1807545,4.91777847 C14.8792186,2.97130113 83.0353252,1.90184344 86.6383843,3.22203084 C90.2414434,4.54221824 92.9854279,39.1114442 88.9187786,58.7470798 C84.8521294,78.3827154 82.8128181,95.9561049 80.0724936,95.9561049 C77.3321691,95.9561049 48.2754968,96.9173841 33.1134531,92.8480312 C17.9514094,88.7786783 3.17872554,83.5955945 3.17872554,82.0649523 C3.17872554,80.5343102 -1.51617799,26.6389078 0.831273772,15.7783431 C2.39624161,8.53796669 3.17872554,4.91777847 3.17872554,4.91777847 Z" id="Path-10" fill="#FFC900"></path>
                <path d="M119.253258,96.0550691 C116.136209,87.6107141 113.870939,80.7029347 112.457448,75.3317307 C110.337211,67.2749248 103.542597,7.77772489 108.000022,4.42161596 C112.457448,1.06550702 147.749046,0 151.730908,0 C155.712769,0 190.631285,4.42161596 193.332747,4.42161596 C196.034209,4.42161596 199.37314,42.3122563 199.37314,48.0275345 C199.37314,53.7428127 198.89215,80.7012733 195.004106,82.4546064 C191.116062,84.2079396 162.5271,96.0550691 145.102153,96.0550691 C133.485521,96.0550691 124.869223,96.0550691 119.253258,96.0550691 Z" id="Path-11" stroke="#6D1667" fill="#6D1667"></path>
                <path d="M3.6996281,133.251575 C11.4057732,131.013186 17.0167928,129.23235 20.532687,127.909064 C25.8065284,125.924136 54.4221351,121.09103 68.324714,123.507583 C82.2272929,125.924136 90.9411525,127.417477 90.9411525,129.815412 C90.9411525,132.213347 90.9411525,188.537798 90.9411525,192.045446 C90.9411525,195.553094 88.1569786,259.214157 86.3001478,277.87313 C84.443317,296.532103 80.0343125,327.513023 80.0343125,327.513023 C80.0343125,327.513023 64.9026915,327.513023 59.671232,327.513023 C54.4397726,327.513023 36.6341819,318.736145 30.503917,316.205011 C24.3736521,313.673876 3.6996281,302.697666 3.6996281,299.423209 C3.6996281,296.148751 0,238.141801 0,211.905146 C0,194.414043 1.23320937,168.196186 3.6996281,133.251575 Z" id="Path-12" stroke="#C4E045" fill="#C4E045"></path>
                <path d="M111.934883,151.608569 C119.60674,144.126868 125.809637,139.269933 130.543572,137.037762 C137.644474,133.689505 155.503562,126.753278 163.010728,124.799603 C170.517893,122.845928 187.942782,122.845928 187.942782,122.845928 C187.942782,122.845928 193.817604,161.126326 193.817604,169.392029 C193.817604,177.657732 199.37314,254.903887 199.37314,277.716537 C199.37314,300.529186 199.37314,319.657215 199.37314,321.507206 C199.37314,323.357198 179.126705,327.513316 177.275338,327.513316 C175.423972,327.513316 111.934883,326.464893 111.934883,316.820887 C111.934883,307.176881 104.862333,233.58231 106.514793,208.337184 C108.167253,183.092058 110.121854,173.748932 110.121854,166.744528 C110.121854,162.074924 110.726197,157.029605 111.934883,151.608569 Z" id="Path-13" stroke="#A50015" fill="#A50015"></path>
                <path d="M96.2270899,16.5263333 L102.263693,16.5263333 C102.768524,34.6041087 104.102145,50.0864337 106.264557,62.9733086 C109.508174,82.3036208 112.320317,100.978565 114.603432,100.978565 C116.886546,100.978565 146.824154,100.978565 152.818848,100.978565 C158.813542,100.978565 186.092024,88.5574269 186.092024,92.306248 C186.092024,94.805462 186.092024,102.372393 186.092024,115.007041 C176.136041,115.007041 169.88691,115.007041 167.34463,115.007041 C163.531209,115.007041 151.831623,115.956241 144.050538,120.705504 C136.269453,125.454766 119.988293,135.233485 114.603432,139.808605 C109.218571,144.383726 106.264557,142.565198 106.264557,152.100023 C106.264557,158.456573 104.930935,174.622948 102.263693,200.599147 C102.263693,235.555453 102.263693,255.028333 102.263693,259.017787 C102.263693,265.001969 106.514793,309.078446 106.514793,309.078446 C106.514793,309.078446 100.569385,309.851181 88.6785681,311.396652 C90.1869577,301.661794 90.9411525,290.90446 90.9411525,279.124648 C90.9411525,261.454929 96.2270899,199.496134 96.2270899,186.338216 C96.2270899,173.180299 98.3059349,120.705504 96.2270899,120.705504 C94.148245,120.705504 77.8901996,113.069857 61.6803879,113.069857 C45.4705763,113.069857 23.1220169,118.603631 20.1378897,118.603631 C18.1484716,118.603631 17.2661018,109.837837 17.4907804,92.306248 C33.9763938,98.087793 43.3319903,100.978565 45.5575699,100.978565 C48.8959392,100.978565 79.9635407,103.17421 82.4082149,100.978565 C84.8528891,98.782921 96.2270899,53.8119447 96.2270899,49.3465487 C96.2270899,46.3696181 96.2270899,35.4295462 96.2270899,16.5263333 Z" id="Path-14" fill="#000000"></path>
            </g>
            <path d="M246.653716,64.0453088 C251.880278,64.0453088 255.882231,62.2347619 258.659575,58.6136682 C261.436919,54.9925744 262.860747,49.7484338 262.931059,42.8812463 L262.931059,42.8812463 L256.954497,42.8812463 L256.954497,43.7249963 C256.954497,48.3890588 256.128325,51.9808557 254.475981,54.5003869 C252.823637,57.0199182 250.462309,58.2796838 247.391997,58.2796838 C243.571684,58.2796838 240.829497,56.5628869 239.165434,53.1292932 C237.501372,49.6956994 236.669341,43.924215 236.669341,35.81484 C236.669341,27.517965 237.477934,21.5824182 239.095122,18.0081994 C240.712309,14.4339807 243.360747,12.6468713 247.040434,12.6468713 C250.040434,12.6468713 252.407622,13.7015588 254.141997,15.8109338 C255.876372,17.9203088 256.743559,20.8265588 256.743559,24.5296838 L256.743559,24.5296838 L262.579497,24.5296838 L262.579497,23.861715 C262.579497,18.56484 261.2377,14.4808557 258.554106,11.6097619 C255.870512,8.73866815 252.056059,7.30312128 247.110747,7.30312128 C241.181059,7.30312128 236.886137,9.5472619 234.225981,14.0355432 C231.565825,18.5238244 230.235747,25.78359 230.235747,35.81484 C230.235747,45.424215 231.577544,52.5316369 234.261137,57.1371057 C236.944731,61.7425744 241.075591,64.0453088 246.653716,64.0453088 Z M283.388872,62.7445275 L283.388872,36.37734 L303.568559,36.37734 L303.568559,62.7445275 L309.756059,62.7445275 L309.756059,8.60390253 L303.568559,8.60390253 L303.568559,30.9281213 L283.388872,30.9281213 L283.388872,8.60390253 L277.201372,8.60390253 L277.201372,62.7445275 L283.388872,62.7445275 Z M330.495122,62.7445275 L330.495122,38.6976525 L338.194341,38.6976525 C342.342778,38.6976525 345.219731,39.3831994 346.8252,40.7542932 C348.430669,42.1253869 349.397466,44.674215 349.725591,48.4007775 C349.842778,49.7601525 349.959966,51.5999963 350.077153,53.9203088 C350.288091,58.5609338 350.768559,61.50234 351.518559,62.7445275 L351.518559,62.7445275 L359.006841,62.7445275 C357.483403,61.455465 356.534184,57.8578088 356.159184,51.9515588 C356.018559,49.6312463 355.889653,47.81484 355.772466,46.50234 C355.444341,42.9632775 354.530278,40.3499963 353.030278,38.6624963 C351.530278,36.9749963 349.280278,36.00234 346.280278,35.7445275 C349.702153,34.87734 352.233403,33.3597619 353.874028,31.1917932 C355.514653,29.0238244 356.334966,26.1234338 356.334966,22.4906213 C356.334966,17.8031213 354.975591,14.3167932 352.256841,12.0316369 C349.538091,9.74648065 345.377934,8.60390253 339.776372,8.60390253 L339.776372,8.60390253 L324.588872,8.60390253 L324.588872,62.7445275 L330.495122,62.7445275 Z M337.842778,33.424215 L330.495122,33.424215 L330.495122,13.9124963 L339.002934,13.9124963 C342.916997,13.9124963 345.752934,14.6624963 347.510747,16.1624963 C349.268559,17.6624963 350.147466,20.06484 350.147466,23.3695275 C350.147466,26.81484 349.157231,29.3519494 347.176762,30.9808557 C345.196294,32.6097619 342.084966,33.424215 337.842778,33.424215 L337.842778,33.424215 Z M378.023247,62.7445275 L378.023247,8.60390253 L371.835747,8.60390253 L371.835747,62.7445275 L378.023247,62.7445275 Z M406.953716,63.9749963 C412.016216,63.9749963 415.965434,62.5453088 418.801372,59.6859338 C421.637309,56.8265588 423.055278,52.830465 423.055278,47.6976525 C423.055278,45.2132775 422.733012,43.080465 422.088481,41.299215 C421.44395,39.517965 420.453716,38.0062463 419.117778,36.7640588 C418.016216,35.7328088 414.641216,34.174215 408.992778,32.0882775 C408.125591,31.7601525 407.469341,31.5140588 407.024028,31.3499963 C403.320903,29.9906213 400.918559,28.6078088 399.816997,27.2015588 C398.715434,25.7953088 398.164653,23.81484 398.164653,21.2601525 C398.164653,18.56484 398.973247,16.4261682 400.590434,14.8441369 C402.207622,13.2621057 404.422466,12.47109 407.234966,12.47109 C409.953716,12.47109 412.057231,13.2972619 413.545512,14.9496057 C415.033794,16.6019494 415.777934,18.9515588 415.777934,21.9984338 L415.777934,21.9984338 L415.777934,22.5609338 L421.332622,22.5609338 C421.332622,22.4203088 421.344341,22.1917932 421.367778,21.8753869 L421.37852,21.724508 C421.394796,21.4852502 421.402934,21.3070275 421.402934,21.18984 C421.402934,16.8539025 420.154887,13.455465 417.658794,10.9945275 C415.1627,8.53359003 411.711528,7.30312128 407.305278,7.30312128 C402.664653,7.30312128 399.043559,8.6331994 396.441997,11.2933557 C393.840434,13.9535119 392.539653,17.6390588 392.539653,22.3499963 C392.539653,24.7874963 392.908794,26.9261682 393.647075,28.7660119 C394.385356,30.6058557 395.504497,32.1937463 397.004497,33.5296838 C397.918559,34.3265588 400.566997,35.5218713 404.949809,37.1156213 C406.520122,37.7015588 407.738872,38.15859 408.606059,38.486715 C412.262309,39.8695275 414.611919,41.2464807 415.654887,42.6175744 C416.697856,43.9886682 417.219341,45.93984 417.219341,48.47109 C417.219341,51.6351525 416.363872,54.1195275 414.652934,55.924215 C412.941997,57.7289025 410.586528,58.6312463 407.586528,58.6312463 C404.258403,58.6312463 401.744731,57.6937463 400.045512,55.8187463 C398.346294,53.9437463 397.496684,51.1664025 397.496684,47.486715 L397.496684,47.486715 L397.496684,45.5531213 L391.731059,45.5531213 C391.731059,45.7406213 391.719341,46.0394494 391.695903,46.4496057 C391.672466,46.8597619 391.660747,47.15859 391.660747,47.34609 C391.660747,52.8070275 392.949809,56.9437463 395.527934,59.7562463 C398.106059,62.5687463 401.914653,63.9749963 406.953716,63.9749963 Z M452.899809,62.7445275 L452.899809,14.15859 L465.872466,14.15859 L465.872466,8.60390253 L432.895903,8.60390253 L432.895903,14.15859 L446.712309,14.15859 L446.712309,62.7445275 L452.899809,62.7445275 Z M483.060747,62.7445275 L483.060747,8.60390253 L476.873247,8.60390253 L476.873247,62.7445275 L483.060747,62.7445275 Z M500.319341,62.7445275 L504.256841,47.1351525 L521.413091,47.1351525 L525.526372,62.7445275 L531.643559,62.7445275 L516.666997,8.60390253 L508.967778,8.60390253 L494.202153,62.7445275 L500.319341,62.7445275 Z M520.041997,41.6507775 L505.627934,41.6507775 L512.834966,13.2796838 L520.041997,41.6507775 Z M548.550591,62.7445275 L548.058403,14.9320275 L567.113091,62.7445275 L574.847466,62.7445275 L574.847466,8.60390253 L569.011528,8.60390253 L569.574028,55.0453088 L550.800591,8.60390253 L542.714653,8.60390253 L542.714653,62.7445275 L548.550591,62.7445275 Z" id="CHRISTIAN" fill="#000000" fill-rule="nonzero"></path>
            <path d="M233.716216,314.744528 L237.653716,299.135153 L254.809966,299.135153 L258.923247,314.744528 L265.040434,314.744528 L250.063872,260.603903 L242.364653,260.603903 L227.599028,314.744528 L233.716216,314.744528 Z M253.438872,293.650778 L239.024809,293.650778 L246.231841,265.279684 L253.438872,293.650778 Z M290.174028,315.974996 C295.236528,315.974996 299.185747,314.545309 302.021684,311.685934 C304.857622,308.826559 306.275591,304.830465 306.275591,299.697653 C306.275591,297.213278 305.953325,295.080465 305.308794,293.299215 C304.664262,291.517965 303.674028,290.006246 302.338091,288.764059 C301.236528,287.732809 297.861528,286.174215 292.213091,284.088278 C291.345903,283.760153 290.689653,283.514059 290.244341,283.349996 C286.541216,281.990621 284.138872,280.607809 283.037309,279.201559 C281.935747,277.795309 281.384966,275.81484 281.384966,273.260153 C281.384966,270.56484 282.193559,268.426168 283.810747,266.844137 C285.427934,265.262106 287.642778,264.47109 290.455278,264.47109 C293.174028,264.47109 295.277544,265.297262 296.765825,266.949606 C298.254106,268.601949 298.998247,270.951559 298.998247,273.998434 L298.998247,273.998434 L298.998247,274.560934 L304.552934,274.560934 C304.552934,274.420309 304.564653,274.191793 304.588091,273.875387 C304.611528,273.558981 304.623247,273.330465 304.623247,273.18984 C304.623247,268.853903 303.3752,265.455465 300.879106,262.994528 C298.383012,260.53359 294.931841,259.303121 290.525591,259.303121 C285.884966,259.303121 282.263872,260.633199 279.662309,263.293356 C277.060747,265.953512 275.759966,269.639059 275.759966,274.349996 C275.759966,276.787496 276.129106,278.926168 276.867387,280.766012 C277.605669,282.605856 278.724809,284.193746 280.224809,285.529684 C281.138872,286.326559 283.787309,287.521871 288.170122,289.115621 C289.740434,289.701559 290.959184,290.15859 291.826372,290.486715 C295.482622,291.869528 297.832231,293.246481 298.8752,294.617574 C299.918169,295.988668 300.439653,297.93984 300.439653,300.47109 C300.439653,303.635153 299.584184,306.119528 297.873247,307.924215 C296.162309,309.728903 293.806841,310.631246 290.806841,310.631246 C287.478716,310.631246 284.965044,309.693746 283.265825,307.818746 C281.566606,305.943746 280.716997,303.166403 280.716997,299.486715 L280.716997,299.486715 L280.716997,297.553121 L274.951372,297.553121 C274.951372,297.740621 274.939653,298.039449 274.916216,298.449606 C274.892778,298.859762 274.881059,299.15859 274.881059,299.34609 C274.881059,304.807028 276.170122,308.943746 278.748247,311.756246 C281.326372,314.568746 285.134966,315.974996 290.174028,315.974996 Z M335.311528,315.974996 C340.374028,315.974996 344.323247,314.545309 347.159184,311.685934 C349.995122,308.826559 351.413091,304.830465 351.413091,299.697653 C351.413091,297.213278 351.090825,295.080465 350.446294,293.299215 C349.801762,291.517965 348.811528,290.006246 347.475591,288.764059 C346.374028,287.732809 342.999028,286.174215 337.350591,284.088278 C336.483403,283.760153 335.827153,283.514059 335.381841,283.349996 C331.678716,281.990621 329.276372,280.607809 328.174809,279.201559 C327.073247,277.795309 326.522466,275.81484 326.522466,273.260153 C326.522466,270.56484 327.331059,268.426168 328.948247,266.844137 C330.565434,265.262106 332.780278,264.47109 335.592778,264.47109 C338.311528,264.47109 340.415044,265.297262 341.903325,266.949606 C343.391606,268.601949 344.135747,270.951559 344.135747,273.998434 L344.135747,273.998434 L344.135747,274.560934 L349.690434,274.560934 C349.690434,274.420309 349.702153,274.191793 349.725591,273.875387 L349.736333,273.724508 C349.752609,273.48525 349.760747,273.307028 349.760747,273.18984 C349.760747,268.853903 348.5127,265.455465 346.016606,262.994528 C343.520512,260.53359 340.069341,259.303121 335.663091,259.303121 C331.022466,259.303121 327.401372,260.633199 324.799809,263.293356 C322.198247,265.953512 320.897466,269.639059 320.897466,274.349996 C320.897466,276.787496 321.266606,278.926168 322.004887,280.766012 C322.743169,282.605856 323.862309,284.193746 325.362309,285.529684 C326.276372,286.326559 328.924809,287.521871 333.307622,289.115621 C334.877934,289.701559 336.096684,290.15859 336.963872,290.486715 C340.620122,291.869528 342.969731,293.246481 344.0127,294.617574 C345.055669,295.988668 345.577153,297.93984 345.577153,300.47109 C345.577153,303.635153 344.721684,306.119528 343.010747,307.924215 C341.299809,309.728903 338.944341,310.631246 335.944341,310.631246 C332.616216,310.631246 330.102544,309.693746 328.403325,307.818746 C326.704106,305.943746 325.854497,303.166403 325.854497,299.486715 L325.854497,299.486715 L325.854497,297.553121 L320.088872,297.553121 C320.088872,297.740621 320.077153,298.039449 320.053716,298.449606 C320.030278,298.859762 320.018559,299.15859 320.018559,299.34609 C320.018559,304.807028 321.307622,308.943746 323.885747,311.756246 C326.463872,314.568746 330.272466,315.974996 335.311528,315.974996 Z M392.120903,314.744528 L392.120903,309.049215 L371.027153,309.049215 L371.027153,289.115621 L390.538872,289.115621 L390.538872,283.631246 L371.027153,283.631246 L371.027153,266.228903 L391.909966,266.228903 L391.909966,260.603903 L365.050591,260.603903 L365.050591,314.744528 L392.120903,314.744528 Z M411.383403,314.744528 L411.383403,263.697653 L424.004497,314.744528 L429.875591,314.744528 L443.059184,263.697653 L443.059184,314.744528 L448.965434,314.744528 L448.965434,260.603903 L438.945903,260.603903 L427.027934,306.764059 L415.637309,260.603903 L405.477153,260.603903 L405.477153,314.744528 L411.383403,314.744528 Z M478.563872,314.744528 C483.532622,314.744528 487.376372,313.391012 490.095122,310.683981 C492.813872,307.976949 494.173247,304.150778 494.173247,299.205465 C494.173247,295.338278 493.423247,292.320699 491.923247,290.152731 C490.423247,287.984762 488.102934,286.584371 484.962309,285.951559 C487.493559,285.224996 489.374419,283.883199 490.604887,281.926168 C491.835356,279.969137 492.450591,277.373434 492.450591,274.139059 C492.450591,269.404684 491.308012,265.965231 489.022856,263.820699 C486.7377,261.676168 483.063872,260.603903 478.001372,260.603903 L478.001372,260.603903 L463.868559,260.603903 L463.868559,314.744528 L478.563872,314.744528 Z M476.032622,283.631246 L469.704497,283.631246 L469.704497,265.420309 L475.681059,265.420309 C479.665434,265.420309 482.436919,266.082418 483.995512,267.406637 C485.554106,268.730856 486.333403,271.021871 486.333403,274.279684 C486.333403,277.701559 485.565825,280.115621 484.030669,281.521871 C482.495512,282.928121 479.829497,283.631246 476.032622,283.631246 L476.032622,283.631246 Z M477.403716,309.400778 L469.704497,309.400778 L469.704497,288.623434 L476.349028,288.623434 C480.520903,288.623434 483.468169,289.443746 485.190825,291.084371 C486.913481,292.724996 487.774809,295.525778 487.774809,299.486715 C487.774809,303.00234 486.966216,305.53359 485.349028,307.080465 C483.731841,308.62734 481.083403,309.400778 477.403716,309.400778 L477.403716,309.400778 Z M535.689653,314.744528 L535.689653,308.90859 L514.068559,308.90859 L514.068559,260.603903 L508.021684,260.603903 L508.021684,314.744528 L535.689653,314.744528 Z M556.147466,314.744528 L556.147466,293.791403 L572.284184,260.603903 L565.709966,260.603903 L553.194341,287.25234 L541.241216,260.603903 L534.034184,260.603903 L550.030278,293.791403 L550.030278,314.744528 L556.147466,314.744528 Z" id="ASSEMBLY" fill="#000000" fill-rule="nonzero"></path>
            <path d="M301.403716,217.744528 L301.403716,204.289449 L251.555083,204.289449 L251.555083,92.9203088 L237.613676,92.9203088 L237.613676,217.744528 L301.403716,217.744528 Z M359.855268,217.744528 L359.855268,92.9203088 L345.589643,92.9203088 L345.589643,217.744528 L359.855268,217.744528 Z M425.358578,217.744528 L425.358578,158.65566 L465.723812,158.65566 L465.723812,145.68691 L425.358578,145.68691 L425.358578,105.56484 L468.722836,105.56484 L468.722836,92.9203088 L411.092953,92.9203088 L411.092953,217.744528 L425.358578,217.744528 Z M574.186107,217.744528 L574.186107,204.613668 L525.553294,204.613668 L525.553294,158.65566 L570.538646,158.65566 L570.538646,146.011129 L525.553294,146.011129 L525.553294,105.889059 L573.699779,105.889059 L573.699779,92.9203088 L511.773997,92.9203088 L511.773997,217.744528 L574.186107,217.744528 Z" id="LIFE" fill="#000000" fill-rule="nonzero"></path>
        </g>
    </g>
</svg>